<?xml version="1.0" encoding="UTF-8" standalone="no"?>
<svg width="42px" height="48px" viewBox="0 0 42 48" version="1.1" xmlns="http://www.w3.org/2000/svg" xmlns:xlink="http://www.w3.org/1999/xlink" xmlns:sketch="http://www.bohemiancoding.com/sketch/ns">
    <!-- Generator: Sketch 3.2.2 (9983) - http://www.bohemiancoding.com/sketch -->
    <title>android2</title>
    <desc>Created with Sketch.</desc>
    <defs></defs>
    <g id="Welcome" stroke="none" stroke-width="1" fill="none" fill-rule="evenodd" sketch:type="MSPage">
        <g id="Desktop-HD-Step3" sketch:type="MSArtboardGroup" transform="translate(-699.000000, -458.000000)" fill="#666666">
            <g id="android2" sketch:type="MSLayerGroup" transform="translate(699.000000, 458.000000)">
                <g id="Group" sketch:type="MSShapeGroup">
                    <path d="M3.06203996,16 L2.93585699,16 C1.31861199,16 0,17.2762935 0,18.8326006 L0,31.1653703 C0,32.7277646 1.31861199,34 2.93585699,34 L3.06414301,34 C4.68138801,34 6,32.7237065 6,31.1653703 L6,18.8326006 C5.99789695,17.2762935 4.67718191,16 3.06203996,16 L3.06203996,16 Z" id="Shape"></path>
                    <path d="M8,35.7380294 C8,37.1900508 9.16006805,38.3726461 10.5794927,38.3726461 L13.3359109,38.3726461 L13.3359109,45.1247509 C13.3359109,46.710457 14.6005258,48 16.142592,48 L16.263223,48 C17.8113208,48 19.0739251,46.7084003 19.0739251,45.1247509 L19.0739251,38.3726461 L22.9260749,38.3726461 L22.9260749,45.1247509 C22.9260749,46.710457 24.1947108,48 25.736777,48 L25.8553975,48 C27.4034952,48 28.6640891,46.7084003 28.6640891,45.1247509 L28.6640891,38.3726461 L31.4225178,38.3726461 C32.839932,38.3726461 34,37.1900508 34,35.7380294 L34,16 L8,16 L8,35.7380294 L8,35.7380294 Z" id="Shape"></path>
                    <path d="M28.1774194,4.20240063 L30.4357143,0.737853091 C30.5808756,0.519386678 30.5165899,0.220541115 30.2947005,0.0783318463 C30.0748848,-0.0659384259 29.7741935,-0.00616931312 29.631106,0.218480111 L27.2898618,3.80256587 C25.5334101,3.08739752 23.571659,2.68550177 21.5,2.68550177 C19.4262673,2.68550177 17.4686636,3.08739752 15.7080645,3.80256587 L13.3709677,0.218480111 C13.2278802,-0.00616931312 12.9251152,-0.0659384259 12.7032258,0.0783318463 C12.4813364,0.220541115 12.4170507,0.519386678 12.562212,0.737853091 L14.8225806,4.20240063 C10.7476959,6.18714737 8,9.92786943 8,14.2188795 C8,14.482688 8.01658986,14.7423745 8.03940092,15 L34.9626728,15 C34.9854839,14.7423745 35,14.482688 35,14.2188795 C35,9.92786943 32.2502304,6.18714737 28.1774194,4.20240063 L28.1774194,4.20240063 Z M15.5,11 C14.672,11 14,10.3311949 14,9.49879711 C14,8.66639936 14.672,8 15.5,8 C16.3328,8 17,8.66639936 17,9.49879711 C17,10.3311949 16.328,11 15.5,11 L15.5,11 Z M27.501201,11 C26.672538,11 26,10.3311949 26,9.49879711 C26,8.66639936 26.672538,8 27.501201,8 C28.3322658,8 29,8.66639936 29,9.49879711 C29,10.3311949 28.3322658,11 27.501201,11 L27.501201,11 Z" id="Shape"></path>
                    <path d="M39.06204,16 L38.9400631,16 C37.3228181,16 36,17.2762935 36,18.8326006 L36,31.1653703 C36,32.7277646 37.3249211,34 38.9400631,34 L39.064143,34 C40.6834911,34 42,32.7237065 42,31.1653703 L42,18.8326006 C42,17.2762935 40.679285,16 39.06204,16 L39.06204,16 Z" id="Shape"></path>
                </g>
            </g>
        </g>
    </g>
</svg>