<?xml version="1.0" encoding="UTF-8" standalone="no"?>
<svg width="30px" height="30px" viewBox="0 0 30 30" version="1.1" xmlns="http://www.w3.org/2000/svg" xmlns:xlink="http://www.w3.org/1999/xlink" xmlns:sketch="http://www.bohemiancoding.com/sketch/ns">
    <!-- Generator: Sketch 3.2.2 (9983) - http://www.bohemiancoding.com/sketch -->
    <title>Oval 13 + Fill 172</title>
    <desc>Created with Sketch.</desc>
    <defs></defs>
    <g id="Welcome" stroke="none" stroke-width="1" fill="none" fill-rule="evenodd" sketch:type="MSPage">
        <g id="Desktop-HD" sketch:type="MSArtboardGroup" transform="translate(-525.000000, -338.000000)">
            <g id="App1" sketch:type="MSLayerGroup" transform="translate(315.000000, 139.000000)">
                <g id="Oval-13-+-Fill-172" transform="translate(210.000000, 199.000000)" sketch:type="MSShapeGroup">
                    <circle id="Oval-13" fill="#E7E9EC" cx="15" cy="15" r="15"></circle>
                    <path d="M22.5683428,10.6841583 C22.3155624,10.9679118 21.895927,11.329098 21.2944496,11.8791201 C20.657503,12.5145681 19.7557864,12.5145681 19.1188398,11.8791201 C18.4813936,11.2426731 18.4813936,10.3434543 19.1188398,9.70750687 C19.7058298,9.12151599 20.3367816,8.42761885 20.3267903,8.42462146 C18.6207725,7.63880419 16.5350846,7.9425403 15.1293059,9.34532154 C13.8479192,10.6237109 13.4827365,12.465111 14.0217682,14.0692173 L8.60097786,19.4795168 C7.79967405,20.2788223 7.79967405,21.575196 8.60097786,22.3745016 C9.40228168,23.1738071 10.7011532,23.1738071 11.502457,22.3745016 L16.9227478,16.9647017 C18.5313502,17.5037334 20.3762473,17.1380511 21.657634,15.8596618 C23.0614144,14.4583792 23.3531609,12.3851805 22.5683428,10.6841583" id="Fill-172" fill="#FFFFFF"></path>
                </g>
            </g>
        </g>
    </g>
</svg>