<?xml version="1.0" encoding="UTF-8" standalone="no"?>
<svg width="168px" height="168px" viewBox="0 0 168 168" version="1.1" xmlns="http://www.w3.org/2000/svg" xmlns:xlink="http://www.w3.org/1999/xlink" xmlns:sketch="http://www.bohemiancoding.com/sketch/ns">
    <!-- Generator: Sketch 3.4.3 (16618) - http://www.bohemiancoding.com/sketch -->
    <title>Profile image</title>
    <desc>Created with Sketch.</desc>
    <defs>
        <path id="path-1" d="M6.09741065,15.0209264 C-2.02849424,23.1349522 -2.02849424,36.2941804 6.09741065,44.4111849 C14.22257,52.5252107 27.3954819,52.5252107 35.5198958,44.4111849 C43.6472917,36.2941804 43.6472917,23.1349522 35.5198958,15.0209264 L20.807535,0.323935501 L6.09741065,15.0209264 L6.09741065,15.0209264 Z"></path>
    </defs>
    <g id="Page-1" stroke="none" stroke-width="1" fill="none" fill-rule="evenodd" sketch:type="MSPage">
        <g id="Artboard-1" sketch:type="MSArtboardGroup" transform="translate(-1074.000000, -302.000000)">
            <g id="Profile-image" sketch:type="MSLayerGroup" transform="translate(1074.000000, 302.000000)">
                <rect id="Rectangle-3" fill="#065D99" sketch:type="MSShapeGroup" x="0" y="0" width="168" height="168" rx="4"></rect>
                <g id="Fill-1-+-Group-4-+-Fill-5" transform="translate(28.000000, 28.000000)">
                    <path d="M41.0944287,40.6969909 C32.9685238,48.8110167 32.9685238,61.9702449 41.0944287,70.0872494 C49.2195881,78.2012752 62.3924999,78.2012752 70.5169138,70.0872494 C78.6443097,61.9702449 78.6443097,48.8110167 70.5169138,40.6969909 L55.804553,26 L41.0944287,40.6969909" id="Fill-1" fill="#FFFFFF" sketch:type="MSShapeGroup"></path>
                    <g id="Group-4" transform="translate(35.000000, 25.000000)">
                        <mask id="mask-2" sketch:name="Clip 3" fill="white">
                            <use xlink:href="#path-1"></use>
                        </mask>
                        <g id="Clip-3"></g>
                        <path d="M-2.02849424,0.323935501 L43.6472917,0.323935501 L43.6472917,52.5252107 L-2.02849424,52.5252107 L-2.02849424,0.323935501 Z" id="Fill-2" fill="#FFFFFF" sketch:type="MSShapeGroup" mask="url(#mask-2)"></path>
                    </g>
                    <path d="M75.9194984,75.8396306 L75.8926606,75.84112 L41.8697205,109.82605 C60.3796372,114.587529 80.8613905,109.725518 95.35383,95.2511863 C100.558137,90.0510906 104.519702,84.0832306 107.240016,77.7117544 L107.204232,77.6901587 L90.6236588,61.1270014 L90.6206768,61.1299801 L90.6206768,61.1270014 L84.2295408,54.7458444 L84.2064304,54.7145678 C84.4986648,62.3244457 81.7351117,70.0281532 75.9194984,75.8396306 L75.9194984,75.8396306 Z M16.3588521,95.2511863 C21.5601768,100.445324 27.5286166,104.401806 33.9033517,107.119885 L33.9063337,107.130311 L56.9287369,84.1316348 L56.9287369,84.1204646 C49.3127512,84.4056767 41.607306,81.6473846 35.7916927,75.8396306 L35.7872198,75.84112 L1.76875265,41.8643816 L1.76278868,41.8584242 C-2.99272942,60.3391307 1.87386756,80.7813225 16.3588521,95.2511863 L16.3588521,95.2511863 Z M77.8078395,4.47477799 L61.2220476,21.0438927 L61.2421759,21.0699565 L109.95213,69.7295368 C109.95213,69.7295368 109.95213,69.7302815 109.951384,69.7317709 L109.954366,69.7302815 L109.95213,69.7295368 C114.705412,51.247341 109.83956,30.8096172 95.35383,16.3434769 C90.1525054,11.148594 84.1840656,7.19434684 77.8078395,4.47477799 L77.8167854,4.46807588 L77.7862201,4.46584184 C77.795166,4.46807588 77.802621,4.47254395 77.8078395,4.47477799 L77.8078395,4.47477799 Z M16.3588521,16.3434769 C11.1590185,21.5368704 7.1989445,27.5017517 4.47788461,33.8695045 L27.5017788,56.8689251 L27.5017788,56.8652017 C27.2169994,49.2627706 29.9775705,41.5612971 35.7916927,35.7557772 C35.9795577,35.568118 36.1704046,35.3849269 36.3619971,35.2017358 L36.3485782,35.1898209 L69.8123964,1.76563465 L69.8168693,1.76191125 C65.2439977,0.588296657 60.5496103,0 55.8574593,0 C41.5625762,0 27.2662021,5.44881853 16.3588521,16.3434769 L16.3588521,16.3434769 Z" id="Fill-5" fill="#FFFFFF" sketch:type="MSShapeGroup"></path>
                </g>
            </g>
        </g>
    </g>
</svg>