<?xml version="1.0" encoding="UTF-8" standalone="no"?>
<svg width="69px" height="69px" viewBox="0 0 69 69" version="1.1" xmlns="http://www.w3.org/2000/svg" xmlns:xlink="http://www.w3.org/1999/xlink" xmlns:sketch="http://www.bohemiancoding.com/sketch/ns">
    <!-- Generator: Sketch 3.2.2 (9983) - http://www.bohemiancoding.com/sketch -->
    <title>Fill 37 + Oval 16</title>
    <desc>Created with Sketch.</desc>
    <defs></defs>
    <g id="Welcome" stroke="none" stroke-width="1" fill="none" fill-rule="evenodd" sketch:type="MSPage">
        <g id="Desktop-HD" sketch:type="MSArtboardGroup" transform="translate(-106.000000, -205.000000)">
            <g id="Create-a-new-app" sketch:type="MSLayerGroup" transform="translate(39.000000, 139.000000)">
                <g id="Fill-37-+-Oval-16" transform="translate(69.000000, 68.000000)" sketch:type="MSShapeGroup">
                    <path d="M45,29 L37,29 L37,21 C37,18.79 35.209,17 33,17 C30.791,17 29,18.79 29,21 L29,29 L21,29 C18.791,29 17,30.79 17,33 C17,35.21 18.791,37 21,37 L29,37 L29,45 C29,47.21 30.791,49 33,49 C35.209,49 37,47.21 37,45 L37,37 L45,37 C47.209,37 49,35.21 49,33 C49,30.79 47.209,29 45,29" id="Fill-37" fill="#45ACF4"></path>
                    <circle id="Oval-15" stroke="#45ACF4" stroke-width="3" cx="32.5" cy="32.5" r="32.5"></circle>
                </g>
            </g>
        </g>
    </g>
</svg>