<?xml version="1.0" encoding="UTF-8" standalone="no"?>
<svg width="14px" height="13px" viewBox="0 0 14 13" version="1.1" xmlns="http://www.w3.org/2000/svg" xmlns:xlink="http://www.w3.org/1999/xlink" xmlns:sketch="http://www.bohemiancoding.com/sketch/ns">
    <!-- Generator: Sketch 3.2.2 (9983) - http://www.bohemiancoding.com/sketch -->
    <title>Fill 179</title>
    <desc>Created with Sketch.</desc>
    <defs></defs>
    <g id="Welcome" stroke="none" stroke-width="1" fill="none" fill-rule="evenodd" sketch:type="MSPage">
        <g id="Desktop-HD" sketch:type="MSArtboardGroup" transform="translate(-851.000000, -39.000000)" fill="#FFFFFF">
            <g id="Topbar" sketch:type="MSLayerGroup">
                <path d="M859,48 L860,48 L860,42 L859,42 L859,48 Z M864.111111,39 L861,40.9745 L861,48.0255 L864.111111,50 C864.601778,50 865,49.6209231 865,49.1538462 L865,39.8461538 C865,39.3790769 864.601778,39 864.111111,39 L864.111111,39 Z M851,44.9166667 C851,46.4720833 852.120437,47.4783333 853.633312,47.7541667 L853.625,47.8333333 L853.625,51.1666667 C853.625,51.6266667 854.017,52 854.5,52 L855.8125,52 C856.2955,52 856.6875,51.6266667 856.6875,51.1666667 L856.6875,47.8333333 L858,47.8333333 L858,42 L854.5,42 C852.567125,42 851,43.0758333 851,44.9166667 L851,44.9166667 Z" id="Fill-179" sketch:type="MSShapeGroup"></path>
            </g>
        </g>
    </g>
</svg>