<?xml version="1.0" encoding="UTF-8" standalone="no"?>
<svg width="1302px" height="636px" viewBox="0 0 1302 636" version="1.1" xmlns="http://www.w3.org/2000/svg" xmlns:xlink="http://www.w3.org/1999/xlink" xmlns:sketch="http://www.bohemiancoding.com/sketch/ns">
    <!-- Generator: Sketch 3.2.2 (9983) - http://www.bohemiancoding.com/sketch -->
    <title>first_slide</title>
    <desc>Created with Sketch.</desc>
    <defs>
        <linearGradient x1="2.60487088%" y1="49.7500002%" x2="101.257813%" y2="49.7500002%" id="linearGradient-1">
            <stop stop-color="#01986D" offset="0%"></stop>
            <stop stop-color="#55A8CA" offset="33.7970344%"></stop>
            <stop stop-color="#A3519A" offset="67.448581%"></stop>
            <stop stop-color="#F09B46" offset="100%"></stop>
        </linearGradient>
    </defs>
    <g id="Page-1" stroke="none" stroke-width="1" fill="none" fill-rule="evenodd" sketch:type="MSPage">
        <g id="first_slide" sketch:type="MSLayerGroup" transform="translate(1.000000, 1.000000)">
            <g id="Page-1" sketch:type="MSShapeGroup">
                <g id="Desktop-HD">
                    <g id="Hero-">
                        <g id="Group">
                            <g id="Hero" transform="translate(675.000000, 0.000000)" fill="url(#linearGradient-1)">
                                <g id="Untitled-16-[Converted]">
                                    <path d="M152.58,520.97 C266.88,551.5 384.91,483.16 415.71,368.52 C446.52,253.88 378.56,135.88 264.25,105.36 C151.98,75.38 36.11,140.81 2.76,252.06 C2.08,254.04 1.92,255.08 1.4,257.03 C-2.05,269.88 4.67,283.56 17.48,286.98 C30.14,290.36 43.79,283.1 47.44,270.53 C71.52,180.88 163.03,128.22 251.74,151.91 C340.46,175.6 393.24,267.04 369.34,356.02 C345.43,445 253.8,498.11 165.08,474.43 L165.06,474.52 C164.44,474.3 163.82,474.09 163.17,473.92 C150.36,470.49 137.17,478.14 133.71,490.99 C130.26,503.85 137.85,517.04 150.66,520.46 C151.31,520.64 151.96,520.76 152.6,520.88 L152.58,520.97 L152.58,520.97 Z M99.67,122.41 L99.8,122.63 C148.69,94.13 208.47,84.32 267.21,100.01 C384.26,131.26 453.98,252.17 422.45,369.48 C390.93,486.8 270.36,556.9 153.29,525.64 L153.04,526.56 C152.2,526.23 151.32,525.94 150.42,525.7 C137.8,522.33 124.81,529.86 121.41,542.51 C118.01,555.16 125.49,568.15 138.11,571.52 C139.01,571.76 139.92,571.94 140.82,572.07 L140.77,572.23 C283.09,610.23 430.52,524.9 468.95,381.9 C507.37,238.89 422.28,91.48 279.61,53.38 C208.05,34.28 135.34,46.23 75.76,80.92 L76.04,81.4 C70.66,84.42 66.45,89.53 64.72,95.97 C61.33,108.62 68.8,121.61 81.42,124.98 C87.85,126.69 94.37,125.58 99.67,122.41 L99.67,122.41 L99.67,122.41 Z M293.08,0.79 C280.53,-2.56 267.58,5.09 264.14,17.87 C260.71,30.65 268.09,43.73 280.64,47.08 C281.23,47.24 281.82,47.37 282.42,47.48 L282.29,47.96 C427.01,86.61 514.03,236.89 474.88,382.6 C436,527.32 287.06,613.93 143.25,577.25 C141.81,576.51 140.28,575.91 138.66,575.48 C126.11,572.13 113.1,579.97 109.61,592.99 C106.11,606.02 113.44,619.29 125.98,622.64 C126.58,622.8 127.17,622.93 127.76,623.04 L127.74,623.11 C298.88,668.81 475.34,566.45 521.4,395.03 C567.46,223.61 465.97,47.04 294.85,1.34 C294.27,1.13 293.68,0.95 293.08,0.79 L293.08,0.79 L293.08,0.79 Z" id="Shape"></path>
                                </g>
                            </g>
                            <g id="runner" transform="translate(778.000000, 185.000000)" fill="#36ACFA">
                                <g id="Group">
                                    <path d="M61.012882,12 C70.3738318,12 78,19.6180061 78,28.991353 C78,38.3646999 70.3738318,46 61.012882,46 C51.6347563,46 44,38.3646999 44,28.991353 C44,19.6266531 51.6347563,12 61.012882,12 L61.012882,12 L61.012882,12 Z M61.0129023,58 C76.9945128,58 90,44.9898447 90,28.9913381 C90,13.0101553 76.9945128,0 61.0129023,0 C45.0140887,0 32,13.0101553 32,28.9913381 C32,44.9898447 45.0140887,58 61.0129023,58 L61.0129023,58 L61.0129023,58 Z" id="Shape"></path>
                                    <path d="M163.00863,200 L163.500568,199.982687 C165.123098,199.887468 203.33886,197.567571 214.86918,196.641344 C221.471497,196.113307 239,194.719638 239,179.951938 C239,176.420155 237.481036,164.837984 218.062457,163.695349 C207.84397,163.106718 182.27186,161.349483 173.658642,160.769509 L154.378151,133 L144.487622,139.803876 L167.056325,172.308398 L169.938905,172.507494 C170.292755,172.533463 204.987281,174.931266 217.346128,175.649742 C218.951397,175.744961 226.977742,176.394186 226.977742,179.951938 C226.977742,180.869509 226.977742,183.665504 213.911197,184.71292 C202.933227,185.587209 166.089712,187.837855 162.974109,188.028295 C160.013854,187.9677 157.200318,186.288372 155.310243,183.50969 L134.847377,154.407106 L125,161.271576 L145.411083,190.30491 C149.510561,196.347028 156.112878,200 163.00863,200 L163.00863,200 L163.00863,200 Z" id="Shape"></path>
                                    <path d="M112.245632,244.948234 C112.090709,244.991372 111.970214,245 111.892753,245 C111.393558,245 106.849166,244.551365 98.4317122,229.185624 L70.6231301,176.289857 C69.1599735,172.830192 70.3391055,168.809735 73.471982,166.670092 L113.528046,139.33788 L74.5392257,77.1760793 C73.7215793,75.9595888 73.1104963,72.9226764 73.2654187,71.4042202 L93.1299213,58.0832181 C93.8787132,57.4447763 94.6877527,57.0220243 95.5398263,56.8408448 L135.914342,48.1010941 C137.179542,47.8422663 138.892296,48.0752113 140.131675,48.8603222 L173.035485,74.1391669 C177.270032,77.8231487 178.715975,80.100833 179,81.2655579 C177.158144,81.1706544 174.464215,80.333778 172.708427,79.2725842 L172.407189,79.0914047 L135.613103,59.6534398 L101.891647,66.9610103 L137.652916,119.84815 C144.168266,131.124412 144.874024,136.620189 135.81106,144.410904 L88.060514,175.84985 L108.277895,225.553408 C114.139129,239.538734 112.57269,244.232144 112.245632,244.948234 L112.245632,244.948234 L112.245632,244.948234 Z M111.828094,257 C113.599216,257 115.36174,256.646036 117.02969,255.938108 C122.386044,253.676193 129.771451,246.139353 119.290879,221.068352 L102.783335,180.440209 L143.209624,153.720255 C159.588204,139.820699 155.108813,126.266473 147.826578,113.687807 L147.603038,113.342476 L121.612253,74.8381157 L133.786567,72.1963367 L166.526531,89.5232988 C169.389558,91.2326852 174.359017,93.1665365 179.16512,93.1665365 C184.873979,93.1665365 187.616639,90.3607255 188.742935,88.6858722 C193.480257,81.7274609 190.754792,73.741691 180.618128,64.9789274 L180.3516,64.7630958 L146.872236,38.9928008 C142.943096,36.3596551 138.025223,35.4013627 133.339488,36.3682883 L92.9389914,45.1224187 C90.2479177,45.7094807 87.771786,46.926771 85.5793777,48.7311233 L65.6757494,62.0522507 C58.5224799,66.8696124 61.5918516,79.3533131 64.4634766,83.6267791 L97.2378312,135.961629 L66.6730802,156.845497 C58.7288243,162.284453 55.8142109,172.583938 59.7261551,181.329435 L59.8981087,181.657499 L87.823372,234.864309 C96.0857422,249.998422 103.703286,257 111.828094,257 L111.828094,257 L111.828094,257 Z" id="Shape"></path>
                                    <path d="M61.1987827,134 L61.6236496,133.939194 C68.3694955,133.131337 73.6846672,127.650071 75.9564045,122.577078 L85,100.999481 L73.8580822,96.3781927 L64.8838527,117.816803 C64.0427897,119.684429 62.031175,121.586802 60.4704394,121.969013 C56.4558807,121.882147 31.9263201,121.334889 24.9203516,120.952677 C16.6571238,120.500972 13.8651413,119.180604 13.0761028,118.659406 C13.1714811,117.56489 14.1946299,116.852587 22.1283691,116.279269 L54.548315,113.542979 L73.0430314,71.8471412 L61.9964919,67 L46.3891363,102.180863 L21.183257,104.309089 C13.9952026,104.8216 0.486169249,105.811876 1.01508519,119.623622 C1.44862285,131.715416 18.6253848,132.636199 24.2613743,132.940231 C32.0563814,133.365876 59.6207056,133.956567 60.7739158,133.982627 L61.1987827,134 L61.1987827,134 Z" id="Shape"></path>
                                </g>
                            </g>
                            <rect id="Rectangle-62" stroke="#F9F9F9" x="0" y="0" width="1300" height="634"></rect>
                        </g>
                    </g>
                </g>
            </g>
        </g>
    </g>
</svg>