<?xml version="1.0" encoding="UTF-8" standalone="no"?>
<svg width="1300px" height="692px" viewBox="0 0 1300 692" version="1.1" xmlns="http://www.w3.org/2000/svg" xmlns:xlink="http://www.w3.org/1999/xlink" xmlns:sketch="http://www.bohemiancoding.com/sketch/ns">
    <!-- Generator: Sketch 3.2.2 (9983) - http://www.bohemiancoding.com/sketch -->
    <title>Hero </title>
    <desc>Created with Sketch.</desc>
    <defs>
        <linearGradient x1="2.60487088%" y1="49.7500002%" x2="101.257813%" y2="49.7500002%" id="linearGradient-1">
            <stop stop-color="#01986D" offset="0%"></stop>
            <stop stop-color="#55A8CA" offset="33.7970344%"></stop>
            <stop stop-color="#A3519A" offset="67.448581%"></stop>
            <stop stop-color="#F09B46" offset="100%"></stop>
        </linearGradient>
    </defs>
    <g id="Page-1" stroke="none" stroke-width="1" fill="none" fill-rule="evenodd" sketch:type="MSPage">
        <g id="Desktop-HD" sketch:type="MSArtboardGroup" transform="translate(0.000000, -84.000000)">
            <rect id="White" fill="#F9F9F9" sketch:type="MSShapeGroup" x="0" y="0" width="1300" height="5059"></rect>
            <g id="Hero-" sketch:type="MSLayerGroup" transform="translate(0.000000, 84.000000)">
                <g sketch:type="MSShapeGroup">
                    <g id="Hero" transform="translate(675.000000, 58.000000)" fill="url(#linearGradient-1)">
                        <g id="Untitled-16-[Converted]">
                            <path d="M152.58,520.97 C266.88,551.5 384.91,483.16 415.71,368.52 C446.52,253.88 378.56,135.88 264.25,105.36 C151.98,75.38 36.11,140.81 2.76,252.06 C2.08,254.04 1.92,255.08 1.4,257.03 C-2.05,269.88 4.67,283.56 17.48,286.98 C30.14,290.36 43.79,283.1 47.44,270.53 C71.52,180.88 163.03,128.22 251.74,151.91 C340.46,175.6 393.24,267.04 369.34,356.02 C345.43,445 253.8,498.11 165.08,474.43 L165.06,474.52 C164.44,474.3 163.82,474.09 163.17,473.92 C150.36,470.49 137.17,478.14 133.71,490.99 C130.26,503.85 137.85,517.04 150.66,520.46 C151.31,520.64 151.96,520.76 152.6,520.88 L152.58,520.97 L152.58,520.97 Z M99.67,122.41 L99.8,122.63 C148.69,94.13 208.47,84.32 267.21,100.01 C384.26,131.26 453.98,252.17 422.45,369.48 C390.93,486.8 270.36,556.9 153.29,525.64 L153.04,526.56 C152.2,526.23 151.32,525.94 150.42,525.7 C137.8,522.33 124.81,529.86 121.41,542.51 C118.01,555.16 125.49,568.15 138.11,571.52 C139.01,571.76 139.92,571.94 140.82,572.07 L140.77,572.23 C283.09,610.23 430.52,524.9 468.95,381.9 C507.37,238.89 422.28,91.48 279.61,53.38 C208.05,34.28 135.34,46.23 75.76,80.92 L76.04,81.4 C70.66,84.42 66.45,89.53 64.72,95.97 C61.33,108.62 68.8,121.61 81.42,124.98 C87.85,126.69 94.37,125.58 99.67,122.41 L99.67,122.41 Z M293.08,0.79 C280.53,-2.56 267.58,5.09 264.14,17.87 C260.71,30.65 268.09,43.73 280.64,47.08 C281.23,47.24 281.82,47.37 282.42,47.48 L282.29,47.96 C427.01,86.61 514.03,236.89 474.88,382.6 C436,527.32 287.06,613.93 143.25,577.25 C141.81,576.51 140.28,575.91 138.66,575.48 C126.11,572.13 113.1,579.97 109.61,592.99 C106.11,606.02 113.44,619.29 125.98,622.64 C126.58,622.8 127.17,622.93 127.76,623.04 L127.74,623.11 C298.88,668.81 475.34,566.45 521.4,395.03 C567.46,223.61 465.97,47.04 294.85,1.34 C294.27,1.13 293.68,0.95 293.08,0.79 L293.08,0.79 Z" id="Shape"></path>
                        </g>
                    </g>
                    <g id="runner" transform="translate(779.000000, 243.000000)" fill="#36ACFA">
                        <g id="Group">
                            <path d="M60.012882,12 C69.3738318,12 77,19.6180061 77,28.991353 C77,38.3646999 69.3738318,46 60.012882,46 C50.6347563,46 43,38.3646999 43,28.991353 C43,19.6266531 50.6347563,12 60.012882,12 L60.012882,12 Z M60.0129023,58 C75.9945128,58 89,44.9898447 89,28.9913381 C89,13.0101553 75.9945128,0 60.0129023,0 C44.0140887,0 31,13.0101553 31,28.9913381 C31,44.9898447 44.0140887,58 60.0129023,58 L60.0129023,58 Z" id="Shape"></path>
                            <path d="M162.00863,200 L162.500568,199.982687 C164.123098,199.887468 202.33886,197.567571 213.86918,196.641344 C220.471497,196.113307 238,194.719638 238,179.951938 C238,176.420155 236.481036,164.837984 217.062457,163.695349 C206.84397,163.106718 181.27186,161.349483 172.658642,160.769509 L153.378151,133 L143.487622,139.803876 L166.056325,172.308398 L168.938905,172.507494 C169.292755,172.533463 203.987281,174.931266 216.346128,175.649742 C217.951397,175.744961 225.977742,176.394186 225.977742,179.951938 C225.977742,180.869509 225.977742,183.665504 212.911197,184.71292 C201.933227,185.587209 165.089712,187.837855 161.974109,188.028295 C159.013854,187.9677 156.200318,186.288372 154.310243,183.50969 L133.847377,154.407106 L124,161.271576 L144.411083,190.30491 C148.510561,196.347028 155.112878,200 162.00863,200 L162.00863,200 Z" id="Shape"></path>
                            <path d="M111.245632,244.948234 C111.090709,244.991372 110.970214,245 110.892753,245 C110.393558,245 105.849166,244.551365 97.4317122,229.185624 L69.6231301,176.289857 C68.1599735,172.830192 69.3391055,168.809735 72.471982,166.670092 L112.528046,139.33788 L73.5392257,77.1760793 C72.7215793,75.9595888 72.1104963,72.9226764 72.2654187,71.4042202 L92.1299213,58.0832181 C92.8787132,57.4447763 93.6877527,57.0220243 94.5398263,56.8408448 L134.914342,48.1010941 C136.179542,47.8422663 137.892296,48.0752113 139.131675,48.8603222 L172.035485,74.1391669 C176.270032,77.8231487 177.715975,80.100833 178,81.2655579 C176.158144,81.1706544 173.464215,80.333778 171.708427,79.2725842 L171.407189,79.0914047 L134.613103,59.6534398 L100.891647,66.9610103 L136.652916,119.84815 C143.168266,131.124412 143.874024,136.620189 134.81106,144.410904 L87.060514,175.84985 L107.277895,225.553408 C113.139129,239.538734 111.57269,244.232144 111.245632,244.948234 L111.245632,244.948234 Z M110.828094,257 C112.599216,257 114.36174,256.646036 116.02969,255.938108 C121.386044,253.676193 128.771451,246.139353 118.290879,221.068352 L101.783335,180.440209 L142.209624,153.720255 C158.588204,139.820699 154.108813,126.266473 146.826578,113.687807 L146.603038,113.342476 L120.612253,74.8381157 L132.786567,72.1963367 L165.526531,89.5232988 C168.389558,91.2326852 173.359017,93.1665365 178.16512,93.1665365 C183.873979,93.1665365 186.616639,90.3607255 187.742935,88.6858722 C192.480257,81.7274609 189.754792,73.741691 179.618128,64.9789274 L179.3516,64.7630958 L145.872236,38.9928008 C141.943096,36.3596551 137.025223,35.4013627 132.339488,36.3682883 L91.9389914,45.1224187 C89.2479177,45.7094807 86.771786,46.926771 84.5793777,48.7311233 L64.6757494,62.0522507 C57.5224799,66.8696124 60.5918516,79.3533131 63.4634766,83.6267791 L96.2378312,135.961629 L65.6730802,156.845497 C57.7288243,162.284453 54.8142109,172.583938 58.7261551,181.329435 L58.8981087,181.657499 L86.823372,234.864309 C95.0857422,249.998422 102.703286,257 110.828094,257 L110.828094,257 Z" id="Shape"></path>
                            <path d="M60.1987827,134 L60.6236496,133.939194 C67.3694955,133.131337 72.6846672,127.650071 74.9564045,122.577078 L84,100.999481 L72.8580822,96.3781927 L63.8838527,117.816803 C63.0427897,119.684429 61.031175,121.586802 59.4704394,121.969013 C55.4558807,121.882147 30.9263201,121.334889 23.9203516,120.952677 C15.6571238,120.500972 12.8651413,119.180604 12.0761028,118.659406 C12.1714811,117.56489 13.1946299,116.852587 21.1283691,116.279269 L53.548315,113.542979 L72.0430314,71.8471412 L60.9964919,67 L45.3891363,102.180863 L20.183257,104.309089 C12.9952026,104.8216 -0.513830751,105.811876 0.0150851894,119.623622 C0.448622846,131.715416 17.6253848,132.636199 23.2613743,132.940231 C31.0563814,133.365876 58.6207056,133.956567 59.7739158,133.982627 L60.1987827,134 L60.1987827,134 Z" id="Shape"></path>
                        </g>
                    </g>
                    <rect id="Rectangle-62" stroke="#F9F9F9" x="0" y="0" width="1300" height="692"></rect>
                </g>
            </g>
        </g>
    </g>
</svg>