<?xml version="1.0" encoding="UTF-8" standalone="no"?>
<svg width="112px" height="29px" viewBox="0 0 112 29" version="1.1" xmlns="http://www.w3.org/2000/svg" xmlns:xlink="http://www.w3.org/1999/xlink" xmlns:sketch="http://www.bohemiancoding.com/sketch/ns">
    <!-- Generator: Sketch 3.2.2 (9983) - http://www.bohemiancoding.com/sketch -->
    <title>Logo</title>
    <desc>Created with Sketch.</desc>
    <defs></defs>
    <g id="Page-1" stroke="none" stroke-width="1" fill="none" fill-rule="evenodd" sketch:type="MSPage">
        <g id="Desktop-HD" sketch:type="MSArtboardGroup" transform="translate(-1113.000000, -5141.000000)" fill="#FFFFFF">
            <g id="Footer" sketch:type="MSLayerGroup" transform="translate(0.000000, 5016.000000)">
                <g id="Logo" transform="translate(1113.000000, 125.000000)" sketch:type="MSShapeGroup">
                    <g id="Nuwe-logo">
                        <path d="M111.217383,8.3579589 C110.704593,6.74289726 109.95358,5.32030822 108.964741,4.09555479 C107.975111,2.8690137 106.747062,1.90089041 105.281185,1.18959589 C103.814716,0.480089041 102.128,0.124342466 100.219852,0.124342466 C98.1345185,0.124342466 96.3243457,0.523390411 94.786963,1.32307534 C93.2499753,2.12276027 91.9689877,3.18821233 90.9443951,4.52042466 C89.9194074,5.85283562 89.1508148,7.39857534 88.6392099,9.15784247 C88.1264198,10.916911 87.8706173,12.7560274 87.8706173,14.6745959 C87.8706173,16.6644726 88.1171358,18.5208699 88.6125432,20.2437877 C89.1071605,21.9665068 89.8579753,23.4602055 90.8651852,24.7197192 C91.8721975,25.9826096 93.1255309,26.9767534 94.6279506,27.7053288 C96.1295802,28.4321164 97.8876049,28.7966027 99.9018272,28.7966027 C103.187358,28.7966027 105.828543,27.9446781 107.824988,26.2394384 C109.821037,24.534 111.119407,22.0825068 111.720494,18.8835685 L109.707062,18.8835685 C109.104,21.4423219 108.005728,23.4409384 106.411457,24.8794178 C104.817383,26.3192877 102.656,27.0391233 99.9280988,27.0391233 C98.2625185,27.0391233 96.8007901,26.7183356 95.5442963,26.0799384 C94.2858272,25.4395548 93.2406914,24.5687603 92.4088889,23.4671575 C91.5755062,22.3673425 90.9471605,21.0885616 90.5222716,19.6312123 C90.0967901,18.173863 89.8848395,16.6456027 89.8848395,15.0476233 L89.8848395,14.7268356 L111.932642,14.7268356 C111.932642,14.5862055 111.941136,14.3988973 111.959309,14.1682877 C111.976296,13.9374795 111.985975,13.7328904 111.985975,13.5541233 C111.985975,11.7078562 111.728988,9.97480822 111.217383,8.3579589 L111.217383,8.3579589 Z M89.9373827,12.9691575 C90.0434568,11.5483562 90.3279012,10.1621164 90.7881481,8.81063699 C91.2483951,7.46094521 91.9038025,6.27929452 92.7537778,5.26806849 C93.6037531,4.25485616 94.6484938,3.43789041 95.8895802,2.8149863 C97.1290864,2.19386986 98.5643457,1.88341096 100.19437,1.88341096 C101.717136,1.88341096 103.072,2.18532877 104.25916,2.78916438 C105.445926,3.39458904 106.455506,4.20122603 107.288494,5.21443836 C108.121086,6.22586301 108.749235,7.39877397 109.175111,8.7309863 C109.599802,10.0633973 109.847506,11.4756575 109.919012,12.9693562 L89.9373827,12.9693562 L89.9373827,12.9691575 Z M20.7119012,6.71429452 C20.534716,5.89713014 20.2435556,5.08870548 19.8376296,4.28902055 C19.4309136,3.48933562 18.8744691,2.76930137 18.1679012,2.13090411 C17.4605432,1.49071918 16.5513086,0.977260274 15.4386173,0.584965753 C14.3352099,0.198232877 12.1131852,0.00337671233 10.5414321,0 C8.96948148,0.00357534247 6.74745679,0.198232877 5.64424691,0.584965753 C4.53155556,0.977260274 3.62232099,1.49071918 2.91496296,2.13090411 C2.20839506,2.76930137 1.65195062,3.48933562 1.2454321,4.28902055 C0.839506173,5.08890411 0.548345679,5.89713014 0.371160494,6.71429452 C0.194567901,7.5314589 0.088691358,8.32260274 0.0527407407,9.08573973 C0.0179753086,9.84927397 0,10.5154795 0,11.0843562 L0,28.0324726 L2.01382716,28.0324726 L2.01382716,10.7115274 C2.01382716,10.0367808 2.06696296,9.18306849 2.17303704,8.15257534 C2.27871605,7.12208219 2.58844444,6.13667808 3.10024691,5.19457534 C3.61303704,4.25426027 4.33896296,3.39796575 5.48977778,2.93237671 C6.67022222,2.45486986 8.75180247,2.08382877 10.5414321,2.07171233 C12.3310617,2.08363014 14.412642,2.45486986 15.5928889,2.93237671 C16.7437037,3.39796575 17.4696296,4.25426027 17.9824198,5.19457534 C18.4944198,6.13667808 18.8041481,7.12208219 18.9096296,8.15257534 C19.0159012,9.18306849 19.0688395,10.0365822 19.0688395,10.7115274 L19.0688395,28.0326712 L21.0826667,28.0326712 L21.0826667,11.0843562 C21.0826667,10.5154795 21.0644938,9.84927397 21.0301235,9.08573973 C20.9943704,8.32260274 20.8882963,7.5314589 20.7119012,6.71429452 L20.7119012,6.71429452 Z M43.8822716,18.2092192 C43.8822716,18.8839658 43.8291358,19.7374795 43.7230617,20.7681712 C43.6173827,21.7986644 43.3076543,22.7838699 42.7956543,23.7261712 C42.2828642,24.6664863 41.5569383,25.5229795 40.4061235,25.9883699 C39.225679,26.4658767 37.1440988,26.8369178 35.3544691,26.8488356 C33.5648395,26.8369178 31.4832593,26.4658767 30.3028148,25.9883699 C29.152,25.5229795 28.4262716,24.6666849 27.913284,23.7261712 C27.401284,22.7840685 27.0917531,21.7986644 26.9860741,20.7681712 C26.88,19.7376781 26.8268642,18.8841644 26.8268642,18.2092192 L26.8268642,0.888273973 L24.813037,0.888273973 L24.813037,17.8363904 C24.813037,18.4052671 24.8312099,19.0714726 24.8657778,19.8350068 C24.9015309,20.5983425 25.0076049,21.3892877 25.1841975,22.2066507 C25.3613827,23.0236164 25.6525432,23.8322397 26.0584691,24.631726 C26.4651852,25.4316096 27.0214321,26.1514452 27.728,26.7900411 C28.435358,27.430226 29.3445926,27.9436849 30.457284,28.3355822 C31.5606914,28.7225137 33.782716,28.9173699 35.3544691,28.9207466 C36.9264198,28.9171712 39.1484444,28.7225137 40.2516543,28.3355822 C41.3645432,27.9434863 42.2737778,27.4300274 42.9809383,26.7900411 C43.6875062,26.1514452 44.2439506,25.4316096 44.6506667,24.631726 C45.0565926,23.8322397 45.3477531,23.0236164 45.5249383,22.2066507 C45.7015309,21.3892877 45.8074074,20.5981438 45.843358,19.8350068 C45.8779259,19.0714726 45.8960988,18.4054658 45.8960988,17.8363904 L45.8960988,0.888273973 L43.8822716,0.888273973 L43.8822716,18.2092192 L43.8822716,18.2092192 Z M76.9910123,25.9373219 L76.8849383,25.9373219 L69.4117531,0.888273973 L66.7087407,0.888273973 L59.2888889,25.9373219 L59.1828148,25.9373219 L51.497679,0.888273973 L49.324642,0.888273973 L57.9640494,28.2821507 L60.5076543,28.2821507 L68.0341728,3.44623288 L68.1398519,3.44623288 L75.6132346,28.2819521 L78.1039012,28.2819521 L86.8489877,0.888273973 L84.6228148,0.888273973 L76.9910123,25.9373219 L76.9910123,25.9373219 Z" id="Shape"></path>
                    </g>
                </g>
            </g>
        </g>
    </g>
</svg>