<?xml version="1.0" encoding="UTF-8" standalone="no"?>
<svg width="28px" height="28px" viewBox="0 0 28 28" version="1.1" xmlns="http://www.w3.org/2000/svg" xmlns:xlink="http://www.w3.org/1999/xlink" xmlns:sketch="http://www.bohemiancoding.com/sketch/ns">
    <!-- Generator: Sketch 3.2.2 (9983) - http://www.bohemiancoding.com/sketch -->
    <title>Shape</title>
    <desc>Created with Sketch.</desc>
    <defs></defs>
    <g id="Page-1" stroke="none" stroke-width="1" fill="none" fill-rule="evenodd" sketch:type="MSPage">
        <g id="Desktop-HD" sketch:type="MSArtboardGroup" transform="translate(-68.000000, -5209.000000)" fill="#FFFFFF">
            <g id="Footer" sketch:type="MSLayerGroup" transform="translate(0.000000, 5016.000000)">
                <g id="Social-icons" transform="translate(68.000000, 192.000000)" sketch:type="MSShapeGroup">
                    <path d="M22.02,23.02 C20.97,24.06 19.76,24.88 18.41,25.45 C18.07,25.59 17.72,25.72 17.37,25.83 L17.37,23.81 C17.37,22.74 17,21.96 16.27,21.46 C16.73,21.42 17.15,21.35 17.53,21.28 C17.92,21.2 18.32,21.08 18.75,20.93 C19.17,20.78 19.55,20.6 19.89,20.4 C20.23,20.19 20.56,19.92 20.87,19.59 C21.18,19.26 21.44,18.89 21.65,18.47 C21.86,18.06 22.03,17.56 22.15,16.97 C22.28,16.39 22.34,15.74 22.34,15.04 C22.34,13.68 21.89,12.52 21.01,11.56 C21.41,10.5 21.37,9.36 20.88,8.12 L20.55,8.08 C20.32,8.05 19.91,8.15 19.31,8.37 C18.72,8.59 18.05,8.95 17.32,9.45 C16.27,9.16 15.18,9.01 14.06,9.01 C12.93,9.01 11.84,9.16 10.82,9.45 C10.35,9.13 9.91,8.87 9.49,8.67 C9.07,8.46 8.74,8.32 8.49,8.24 C8.24,8.17 8.01,8.12 7.79,8.1 C7.58,8.09 7.44,8.08 7.38,8.09 L7.24,8.12 C6.75,9.37 6.71,10.51 7.11,11.56 C6.22,12.52 5.78,13.68 5.78,15.04 C5.78,15.74 5.84,16.39 5.96,16.97 C6.09,17.56 6.25,18.06 6.47,18.47 C6.68,18.89 6.94,19.26 7.25,19.59 C7.56,19.92 7.89,20.19 8.23,20.4 C8.56,20.6 8.95,20.78 9.37,20.93 C9.8,21.08 10.2,21.2 10.59,21.28 C10.97,21.35 11.39,21.42 11.84,21.46 C11.12,21.95 10.76,22.73 10.76,23.81 L10.76,25.87 C10.37,25.75 9.97,25.61 9.59,25.45 C8.24,24.88 7.02,24.06 5.98,23.02 C4.94,21.98 4.12,20.76 3.55,19.41 C2.96,18.02 2.66,16.53 2.66,15 C2.66,13.47 2.96,11.98 3.55,10.59 C4.12,9.24 4.94,8.02 5.98,6.98 C7.02,5.94 8.24,5.12 9.59,4.55 C10.98,3.96 12.47,3.66 14,3.66 C15.53,3.66 17.02,3.96 18.41,4.55 C19.76,5.12 20.98,5.94 22.02,6.98 C23.06,8.02 23.88,9.24 24.45,10.59 C25.04,11.98 25.34,13.47 25.34,15 C25.34,16.53 25.04,18.02 24.45,19.41 C23.88,20.76 23.06,21.98 22.02,23.02 L22.02,23.02 Z M14,1.5 C6.54,1.5 0.5,7.54 0.5,15 C0.5,22.46 6.54,28.5 14,28.5 C21.46,28.5 27.5,22.46 27.5,15 C27.5,7.54 21.46,1.5 14,1.5 L14,1.5 Z" id="Shape"></path>
                </g>
            </g>
        </g>
    </g>
</svg>