<?xml version="1.0" encoding="UTF-8" standalone="no"?>
<svg width="516px" height="403px" viewBox="0 0 516 403" version="1.1" xmlns="http://www.w3.org/2000/svg" xmlns:xlink="http://www.w3.org/1999/xlink" xmlns:sketch="http://www.bohemiancoding.com/sketch/ns">
    <!-- Generator: Sketch 3.2.2 (9983) - http://www.bohemiancoding.com/sketch -->
    <title>Illustration SDK</title>
    <desc>Created with Sketch.</desc>
    <defs></defs>
    <g id="Page-1" stroke="none" stroke-width="1" fill="none" fill-rule="evenodd" sketch:type="MSPage">
        <g id="Desktop-HD" sketch:type="MSArtboardGroup" transform="translate(-90.000000, -928.000000)">
            <g id="SDK" sketch:type="MSLayerGroup" transform="translate(0.000000, 789.000000)">
                <g id="Illustration-SDK" transform="translate(90.000000, 139.000000)">
                    <path d="M508.36,17.13 C506.25,17.13 504.53,18.83 504.53,20.92 C504.53,23.02 506.25,24.72 508.36,24.72 C510.46,24.72 512.18,23.02 512.18,20.92 C512.18,18.83 510.46,17.13 508.36,17.13 L508.36,17.13 Z M458.66,74.01 C456.55,74.01 454.84,75.72 454.84,77.81 C454.84,79.91 456.55,81.61 458.66,81.61 C460.77,81.61 462.48,79.91 462.48,77.81 C462.48,75.72 460.77,74.01 458.66,74.01 L458.66,74.01 Z M409.07,98.69 C406.97,98.69 405.25,100.39 405.25,102.49 C405.25,104.58 406.97,106.29 409.07,106.29 C411.18,106.29 412.9,104.58 412.9,102.49 C412.9,100.39 411.18,98.69 409.07,98.69 L409.07,98.69 Z M357.5,55.14 C355.39,55.14 353.68,56.84 353.68,58.94 C353.68,61.03 355.39,62.74 357.5,62.74 C359.61,62.74 361.32,61.03 361.32,58.94 C361.32,56.84 359.61,55.14 357.5,55.14 L357.5,55.14 Z M307.85,3.8 C305.75,3.8 304.03,5.5 304.03,7.6 C304.03,9.69 305.75,11.39 307.85,11.39 C309.96,11.39 311.68,9.69 311.68,7.6 C311.68,5.5 309.96,3.8 307.85,3.8 L307.85,3.8 Z M260.01,43.68 C257.91,43.68 256.19,45.39 256.19,47.48 C256.19,49.58 257.91,51.28 260.01,51.28 C262.12,51.28 263.84,49.58 263.84,47.48 C263.84,45.39 262.12,43.68 260.01,43.68 L260.01,43.68 Z M212.18,131.04 C210.071,131.04 208.36,132.74 208.36,134.83 C208.36,136.93 210.07,138.63 212.18,138.63 C214.29,138.63 216,136.93 216,134.83 C216,132.74 214.29,131.04 212.18,131.04 L212.18,131.04 Z M158.74,176.61 C156.63,176.61 154.91,178.31 154.91,180.4 C154.91,182.5 156.63,184.2 158.74,184.2 C160.84,184.2 162.56,182.5 162.56,180.4 C162.56,178.31 160.84,176.61 158.74,176.61 L158.74,176.61 Z M107.12,138.63 C105.01,138.63 103.3,140.34 103.3,142.43 C103.3,144.53 105.01,146.23 107.12,146.23 C109.23,146.23 110.94,144.53 110.94,142.43 C110.94,140.34 109.23,138.63 107.12,138.63 L107.12,138.63 Z M59.4,91.09 C57.29,91.09 55.58,92.8 55.58,94.89 C55.58,96.98 57.29,98.69 59.4,98.69 C61.51,98.69 63.22,96.98 63.22,94.89 C63.22,92.8 61.51,91.09 59.4,91.09 L59.4,91.09 Z M7.64,102.55 C5.54,102.55 3.82,104.26 3.82,106.35 C3.82,108.45 5.54,110.15 7.64,110.15 C9.75,110.15 11.47,108.45 11.47,106.35 C11.47,104.26 9.75,102.55 7.64,102.55 L7.64,102.55 Z M508.36,28.52 C507.31,28.52 506.31,28.31 505.4,27.93 L464.9,73.44 C465.77,74.68 466.3,76.18 466.3,77.81 C466.3,82.01 462.88,85.41 458.66,85.41 C456.35,85.41 454.31,84.37 452.91,82.76 L416.54,100.88 C416.65,101.4 416.72,101.94 416.72,102.49 C416.72,106.68 413.3,110.08 409.07,110.08 C404.85,110.08 401.43,106.68 401.43,102.49 C401.43,101.49 401.64,100.54 401.99,99.66 L361.39,65.45 C360.25,66.12 358.93,66.54 357.5,66.54 C353.28,66.54 349.86,63.13 349.86,58.94 C349.86,57.69 350.19,56.53 350.73,55.49 L310.77,14.62 C309.87,14.98 308.89,15.19 307.85,15.19 C306.31,15.19 304.88,14.73 303.68,13.95 L267,44.41 C267.42,45.35 267.66,46.39 267.66,47.48 C267.66,51.68 264.24,55.08 260.01,55.08 C259.42,55.08 258.85,55 258.3,54.87 L218.19,130.19 C219.2,131.48 219.82,133.08 219.82,134.83 C219.82,139.03 216.4,142.43 212.179,142.43 C211.009,142.43 209.909,142.15 208.919,141.68 L166.129,178.56 C166.279,179.16 166.379,179.77 166.379,180.4 C166.379,184.6 162.959,188 158.739,188 C154.519,188 151.089,184.6 151.089,180.4 C151.089,179.95 151.149,179.5 151.229,179.06 L111.149,148.86 C109.979,149.59 108.609,150.03 107.119,150.03 C102.899,150.03 99.479,146.63 99.479,142.43 C99.479,141.31 99.739,140.26 100.169,139.31 L62.5,101.82 C61.55,102.24 60.5,102.49 59.4,102.49 C56.46,102.49 53.93,100.82 52.65,98.39 L15.17,107.46 C14.63,111.13 11.48,113.95 7.64,113.95 C3.42,113.95 0,110.55 0,106.35 C0,102.16 3.42,98.75 7.64,98.75 C10.2,98.75 12.44,100.01 13.83,101.92 L52.13,92.65 C53.1,89.56 55.97,87.29 59.4,87.29 C63.62,87.29 67.04,90.7 67.04,94.89 C67.04,95.9 66.84,96.85 66.48,97.73 L104.32,135.38 C105.19,135.04 106.13,134.83 107.12,134.83 C111.34,134.83 114.77,138.24 114.77,142.43 C114.77,143.06 114.67,143.67 114.52,144.25 L154.31,174.23 C155.56,173.34 157.08,172.81 158.74,172.81 C160.2,172.81 161.56,173.24 162.73,173.95 L205.04,137.48 C204.73,136.65 204.54,135.77 204.54,134.83 C204.54,130.64 207.96,127.24 212.18,127.24 C212.54,127.24 212.88,127.3 213.23,127.34 L253.58,51.55 C252.82,50.38 252.37,48.98 252.37,47.48 C252.37,43.29 255.79,39.89 260.01,39.89 C261.02,39.89 261.97,40.09 262.84,40.44 L300.4,9.25 C300.28,8.72 300.21,8.17 300.21,7.6 C300.21,3.4 303.63,-2.84217094e-14 307.85,-2.84217094e-14 C312.08,-2.84217094e-14 315.5,3.4 315.5,7.6 C315.5,8.67 315.27,9.7 314.86,10.63 L355.08,51.77 C355.85,51.51 356.65,51.34 357.5,51.34 C361.72,51.34 365.15,54.74 365.15,58.94 C365.15,59.62 365.03,60.27 364.86,60.9 L405.98,95.55 C406.93,95.13 407.97,94.89 409.07,94.89 C410.62,94.89 412.06,95.36 413.27,96.14 L451.07,77.31 C451.33,73.35 454.61,70.21 458.66,70.21 C459.12,70.21 459.56,70.27 460,70.35 L501.33,23.9 C500.93,22.99 500.71,21.98 500.71,20.92 C500.71,16.73 504.14,13.33 508.36,13.33 C512.58,13.33 516,16.73 516,20.92 C516,25.12 512.58,28.52 508.36,28.52 L508.36,28.52 Z" id="Shape" fill="#2088C9" sketch:type="MSShapeGroup"></path>
                    <path d="M63.99,65 C61.24,65 59,67.28 59,70.09 L59,85 L405,85 L405,70.09 C405,67.28 402.76,65 400.01,65 L63.99,65 L63.99,65 Z" id="Shape" fill="#E0E0E0" sketch:type="MSShapeGroup"></path>
                    <path d="M67.03,75 C67.03,72.99 68.62,71.36 70.59,71.36 C72.56,71.36 74.16,72.99 74.16,75 C74.16,77.01 72.56,78.64 70.59,78.64 C68.62,78.64 67.03,77.01 67.03,75 L67.03,75 Z" id="Shape" fill="#CCCCCC" sketch:type="MSShapeGroup"></path>
                    <path d="M79.51,75 C79.51,72.99 81.11,71.36 83.08,71.36 C85.05,71.36 86.64,72.99 86.64,75 C86.64,77.01 85.05,78.64 83.08,78.64 C81.11,78.64 79.51,77.01 79.51,75 L79.51,75 Z" id="Shape" fill="#CCCCCC" sketch:type="MSShapeGroup"></path>
                    <ellipse id="Oval" fill="#CCCCCC" sketch:type="MSShapeGroup" cx="95.56" cy="75" rx="3.57" ry="3.64"></ellipse>
                    <path d="M63.99,324 C61.24,324 59,321.72 59,318.91 L59,84 L405,84 L405,318.91 C405,321.72 402.76,324 400.01,324 L63.99,324 L63.99,324 Z" id="Shape" fill="#E0E0E0" sketch:type="MSShapeGroup"></path>
                    <rect id="Rectangle-11" fill="#153B4C" sketch:type="MSShapeGroup" x="59" y="91" width="346" height="226"></rect>
                    <text id="--(void)loginUser-{" sketch:type="MSTextLayer" font-family="Monaco" font-size="7.5" font-weight="normal" fill="#D0D0D0">
                        <tspan x="62" y="114">- (void)loginUser {</tspan>
                        <tspan x="62" y="125">    NUUser *user = [NUUser user];</tspan>
                        <tspan x="62" y="136">    user.password = @"my pass";</tspan>
                        <tspan x="62" y="147">    user.email = @"email@example.com";</tspan>
                        <tspan x="62" y="158"> </tspan>
                        <tspan x="62" y="169">    // other fields can be set just like with NUObject</tspan>
                        <tspan x="62" y="180">    user[@"phone"] = @"415-392-0202";</tspan>
                        <tspan x="62" y="191"> </tspan>
                        <tspan x="62" y="202">    [user signUpInBackgroundWithBlock:^(BOOL succeeded, NSError *error) {</tspan>
                        <tspan x="62" y="213">      if (!error) {</tspan>
                        <tspan x="62" y="224">          // Hooray! Let them use the app now.</tspan>
                        <tspan x="62" y="235">      } else {</tspan>
                        <tspan x="62" y="246">          NSString *errorString = [error userInfo][@"error"];</tspan>
                        <tspan x="62" y="257">          // Show the errorString somewhere and let the user try again.</tspan>
                        <tspan x="62" y="268">      }</tspan>
                        <tspan x="62" y="279">    }];</tspan>
                        <tspan x="62" y="290">}</tspan>
                    </text>
                    <path d="M238.63,308 L434.37,308 C439.69,308 444,312.31 444,317.63 L444,393.37 C444,398.69 439.69,403 434.37,403 L238.63,403 C233.31,403 229,398.69 229,393.37 L229,317.63 C229,312.31 233.31,308 238.63,308 L238.63,308 Z" id="Shape" fill="#2088C9" sketch:type="MSShapeGroup"></path>
                    <path d="M277.62,343.85 L277.62,343.67 C277.53,343.17 277.49,342.73 277.49,342.37 C277.49,338.56 280.26,336.14 283.35,335.29 L283.4,335.47 C283.44,335.92 283.49,336.32 283.49,336.64 C283.49,340.62 280.67,342.91 277.62,343.85 L277.62,343.85 Z M282.64,367.93 C280.94,367.93 279.19,366.68 277.31,366.68 C275.16,366.68 273.37,368.07 271.85,368.07 C269.75,368.07 267.86,366.23 266.34,363.41 C264.24,359.56 263.3,355.13 263.3,352.26 C263.3,346.84 267.91,342.68 272.571,342.68 C274.8,342.68 275.661,344.43 277.72,344.43 C280.31,344.43 281.88,342.59 283.76,342.59 C286.45,342.59 288.2,344.2 289.49,345.81 L289.4,345.86 C287.43,347.25 286.36,349.4 286.36,351.86 C286.36,354.9 287.79,357.01 290.43,358.44 L290.43,358.67 C290.43,358.8 290.48,358.93 290.48,359.11 C290.48,362.65 286.72,367.93 282.64,367.93 L282.64,367.93 Z" id="Shape" fill="#FFFFFF" sketch:type="MSShapeGroup"></path>
                    <path d="M319.73,359.9 C318.62,359.9 317.71,359.02 317.71,357.93 L317.71,350.24 C317.71,349.15 318.62,348.27 319.73,348.27 C320.84,348.27 321.75,349.15 321.75,350.24 L321.75,357.93 C321.75,359.02 320.84,359.9 319.73,359.9 L319.73,359.9 Z M328.1,344.69 C328.65,344.69 329.1,344.26 329.1,343.73 C329.1,343.21 328.65,342.78 328.1,342.78 C327.56,342.78 327.11,343.21 327.11,343.73 C327.11,344.26 327.56,344.69 328.1,344.69 L328.1,344.69 Z M335.8,344.69 C336.34,344.69 336.79,344.26 336.79,343.73 C336.79,343.21 336.34,342.78 335.8,342.78 C335.25,342.78 334.8,343.21 334.8,343.73 C334.8,344.26 335.25,344.69 335.8,344.69 L335.8,344.69 Z M327.64,341.04 L325.98,338.73 C325.88,338.59 325.91,338.41 326.03,338.33 C326.16,338.24 326.35,338.28 326.45,338.42 L328.17,340.82 C329.3,340.39 330.56,340.15 331.89,340.15 C333.22,340.15 334.48,340.39 335.61,340.82 L337.33,338.42 C337.43,338.28 337.61,338.24 337.74,338.33 C337.87,338.41 337.9,338.59 337.8,338.73 L336.14,341.04 C338.781,342.22 340.62,344.46 340.86,347.08 L322.92,347.08 C323.15,344.46 325,342.22 327.64,341.04 L327.64,341.04 Z M339.33,363.9 L337.53,363.9 L337.53,368.18 C337.53,369.27 336.63,370.15 335.509,370.15 C334.399,370.15 333.499,369.27 333.499,368.18 L333.499,363.9 L330.359,363.9 L330.359,368.18 C330.359,369.27 329.459,370.15 328.339,370.15 C327.229,370.15 326.329,369.27 326.329,368.18 L326.329,363.9 L324.529,363.9 C323.659,363.9 322.959,363.22 322.959,362.39 L322.959,348.33 L340.899,348.33 L340.899,362.39 C340.9,363.22 340.19,363.9 339.33,363.9 L339.33,363.9 Z M344.05,359.9 C342.93,359.9 342.03,359.02 342.03,357.93 L342.03,350.24 C342.03,349.15 342.93,348.27 344.05,348.27 C345.16,348.27 346.06,349.15 346.06,350.24 L346.06,357.93 C346.06,359.02 345.16,359.9 344.05,359.9 L344.05,359.9 Z" id="Shape" fill="#FFFFFF" sketch:type="MSShapeGroup"></path>
                    <path d="M385.71,339.46 L404.18,339.46 C407.58,339.46 410.33,342.22 410.33,345.62 L410.33,364.09 C410.33,367.49 407.58,370.24 404.18,370.24 L385.71,370.24 C382.31,370.24 379.55,367.49 379.55,364.09 L379.55,345.62 C379.55,342.22 382.31,339.46 385.71,339.46 L385.71,339.46 Z" id="Shape" fill="#FFFFFF" sketch:type="MSShapeGroup"></path>
                    <text id="JS" sketch:type="MSTextLayer" font-family="Helvetica Neue" font-size="16" font-weight="420" sketch:alignment="middle" fill="#2088C9">
                        <tspan x="384.02" y="366">JS</tspan>
                    </text>
                </g>
            </g>
        </g>
    </g>
</svg>