<?xml version="1.0" encoding="UTF-8" standalone="no"?>
<svg width="40px" height="50px" viewBox="0 0 40 50" version="1.1" xmlns="http://www.w3.org/2000/svg" xmlns:xlink="http://www.w3.org/1999/xlink" xmlns:sketch="http://www.bohemiancoding.com/sketch/ns">
    <!-- Generator: Sketch 3.2.2 (9983) - http://www.bohemiancoding.com/sketch -->
    <title>Shape</title>
    <desc>Created with Sketch.</desc>
    <defs></defs>
    <g id="Welcome" stroke="none" stroke-width="1" fill="none" fill-rule="evenodd" sketch:type="MSPage">
        <g id="Desktop-HD-Step3" sketch:type="MSArtboardGroup" transform="translate(-528.000000, -454.000000)" fill="#666666">
            <g id="apple19" sketch:type="MSLayerGroup" transform="translate(528.000000, 454.000000)">
                <path d="M33.408095,26.5342582 C33.3461145,20.1932968 38.4816695,17.1522445 38.7110741,17.0011551 C35.8255266,12.6973087 31.3305007,12.1077179 29.728698,12.0395565 C25.9032727,11.6447683 22.2643646,14.3351369 20.3229164,14.3351369 C18.3863614,14.3351369 15.3904771,12.0979386 12.2178619,12.1567119 C8.04828172,12.2198858 4.20366741,14.6278297 2.05670491,18.4340104 C-2.27540623,26.0960501 0.947292232,37.4468218 5.16964223,43.6608485 C7.2328447,46.7025854 9.69306781,50.1188674 12.92325,49.9968224 C16.0338846,49.870279 17.210171,47.9452343 20.9709293,47.9452343 C24.7315917,47.9452343 25.7888103,49.9968224 29.0805892,49.9338441 C32.4279203,49.8704746 34.5485938,46.8339207 36.5975964,43.7828935 C38.9668636,40.2541501 39.942433,36.8377703 40,36.6624284 C39.9256426,36.6278099 33.4727619,34.108187 33.408095,26.5342582 L33.408095,26.5342582 Z M27.3806573,8.30106419 C29.1026207,6.10002983 30.2648905,3.04635989 29.9478465,0 C27.467483,0.106401772 24.4609614,1.74070456 22.6813711,3.93676403 C21.0845871,5.88489113 19.6867989,8.99419864 20.0613734,11.9796415 C22.8303529,12.2072682 25.656863,10.4971237 27.3806573,8.30106419 L27.3806573,8.30106419 Z" id="Shape" sketch:type="MSShapeGroup"></path>
            </g>
        </g>
    </g>
</svg>