<?xml version="1.0" encoding="UTF-8" standalone="no"?>
<svg width="27px" height="27px" viewBox="0 0 27 27" version="1.1" xmlns="http://www.w3.org/2000/svg" xmlns:xlink="http://www.w3.org/1999/xlink" xmlns:sketch="http://www.bohemiancoding.com/sketch/ns">
    <!-- Generator: Sketch 3.2.2 (9983) - http://www.bohemiancoding.com/sketch -->
    <title>Shape</title>
    <desc>Created with Sketch.</desc>
    <defs></defs>
    <g id="Page-1" stroke="none" stroke-width="1" fill="none" fill-rule="evenodd" sketch:type="MSPage">
        <g id="Desktop-HD" sketch:type="MSArtboardGroup" transform="translate(-170.000000, -5208.000000)" fill="#FFFFFF">
            <g id="Footer" sketch:type="MSLayerGroup" transform="translate(0.000000, 5016.000000)">
                <g id="Social-icons" transform="translate(68.000000, 192.000000)" sketch:type="MSShapeGroup">
                    <path d="M102.34,27 L108.13,27 L108.13,8.78 L102.34,8.78 L102.34,27 L102.34,27 Z M105.28,0 C103.29,0 102,1.36 102,3.15 C102,4.9 103.26,6.3 105.2,6.3 L105.24,6.3 C107.26,6.3 108.51,4.9 108.51,3.15 C108.47,1.36 107.26,0 105.28,0 L105.28,0 Z M129,16.55 L129,27 L123.21,27 L123.21,17.25 C123.21,14.81 122.38,13.13 120.28,13.13 C118.68,13.13 117.73,14.26 117.31,15.35 C117.16,15.74 117.12,16.28 117.12,16.83 L117.12,27 L111.33,27 C111.33,27 111.41,10.49 111.33,8.78 L117.12,8.78 L117.12,11.36 L117.08,11.42 L117.12,11.42 L117.12,11.36 C117.89,10.13 119.26,8.35 122.34,8.35 C126.15,8.35 129,10.96 129,16.55 L129,16.55 Z" id="Shape"></path>
                </g>
            </g>
        </g>
    </g>
</svg>