<?xml version="1.0" encoding="UTF-8" standalone="no"?>
<svg width="322px" height="374px" viewBox="0 0 322 374" version="1.1" xmlns="http://www.w3.org/2000/svg" xmlns:xlink="http://www.w3.org/1999/xlink" xmlns:sketch="http://www.bohemiancoding.com/sketch/ns">
    <!-- Generator: Sketch 3.2.2 (9983) - http://www.bohemiancoding.com/sketch -->
    <title>Group</title>
    <desc>Created with Sketch.</desc>
    <defs></defs>
    <g id="Page-1" stroke="none" stroke-width="1" fill="none" fill-rule="evenodd" sketch:type="MSPage">
        <g id="Evangelist-intro" sketch:type="MSArtboardGroup" transform="translate(-807.000000, -151.000000)">
            <g id="Group" sketch:type="MSLayerGroup" transform="translate(807.000000, 151.000000)">
                <path d="M128.245382,61.1746002 C199.033791,61.2838336 256.67813,117.290998 256.742516,186.104349 C256.806535,254.916388 199.266702,310.746943 128.478293,310.638067 C58.9462583,310.530623 2.10186324,256.471056 0.0427405536,189.175525 C-0.0424973215,187.964418 0.026278303,187.361487 0.0251808197,186.192594 C0.0178642639,178.477329 6.01914722,171.832098 13.9565128,171.844023 C21.7965681,171.856306 28.5620654,177.972542 28.7225418,185.557824 C28.7727822,239.367323 73.511204,282.612781 128.452319,282.697211 C183.392215,282.782236 228.052471,239.532127 228.002475,186.124979 C227.9526,132.71819 183.211496,89.1990513 128.271356,89.114622 L128.271356,89.0564278 C127.879433,89.0867174 127.487265,89.1134295 127.087659,89.1125948 C119.150904,89.1004312 112.710871,82.835609 112.703676,75.1202244 C112.696604,67.4061515 119.12493,61.1606479 127.061442,61.1731692 C127.461048,61.1731692 127.853703,61.2020278 128.245382,61.2339869 L128.245382,61.1746002 L128.245382,61.1746002 Z" id="Shape-4" fill="#149669" sketch:type="MSShapeGroup"></path>
                <path d="M36.4853528,276.991671 L36.595467,276.886015 C60.4426831,300.198881 93.4721768,314.680178 129.850458,314.736107 C202.338991,314.848202 261.345184,257.650799 261.279457,187.23508 C261.21373,116.818526 202.374842,59.4405773 129.872895,59.3287203 L129.873627,58.7718208 C129.333056,58.8318037 128.781875,58.8614971 128.224354,58.8605431 C120.408443,58.8486181 114.066574,52.6822967 114.059501,45.0891438 C114.052307,37.4945599 120.382591,31.3488688 128.198624,31.3605554 C128.756145,31.3616286 129.307448,31.395138 129.848263,31.456552 L129.846678,31.3634174 C217.984958,31.4991244 289.992305,101.44285 290.072543,187.279918 C290.152659,273.114004 218.160311,342.836759 129.800827,342.700575 C85.4853025,342.632721 45.3105824,325.003689 16.246662,296.61934 L16.480304,296.393719 C13.8398809,293.89256 12.1978019,290.399237 12.1942656,286.53755 C12.1871929,278.943443 18.5166234,272.796679 26.3325341,272.808842 C30.3132283,272.815043 33.9118762,274.416577 36.4853528,276.991671 L36.4853528,276.991671 Z" id="Shape-2" fill="#EF7F00" sketch:type="MSShapeGroup"></path>
                <path d="M129.027712,373.609338 C121.258749,373.597055 114.955536,367.367888 114.948463,359.695792 C114.941147,352.023099 121.232775,345.812893 129.001738,345.824818 C129.369151,345.825653 129.732052,345.840798 130.09227,345.86906 L130.093002,345.578208 C219.71825,345.716181 293.272927,274.674874 293.191225,187.215046 C293.110133,100.353141 220.427712,29.4635202 131.635454,28.362123 C130.690521,28.562106 129.710224,28.6654962 128.705661,28.6637074 C120.936576,28.6517824 114.633364,22.3046774 114.626047,14.4879298 C114.618852,6.67058608 120.910237,0.343276639 128.679078,0.355440185 C129.046491,0.356274938 129.409514,0.370584991 129.769732,0.399443599 L129.770708,0.35687119 C235.755043,0.520244302 321.904073,84.3632059 321.99992,187.259527 C322.095889,290.147381 236.113188,373.722864 130.137267,373.56915 C129.770952,373.597055 129.401222,373.610172 129.027712,373.609338 L129.027712,373.609338 Z" id="Shape-3" fill="#A15499" sketch:type="MSShapeGroup"></path>
                <path d="M128.759149,92.3957999 C181.382538,92.3957999 224.04092,134.112643 224.04092,185.574016 C224.04092,237.03539 181.382538,278.752233 128.759149,278.752233 C76.1357605,278.752233 33.4773788,237.03539 33.4773788,185.574016 C33.4773788,134.112643 76.1357605,92.3957999 128.759149,92.3957999 Z" id="Ellipse" fill="#1EACFF" sketch:type="MSShapeGroup"></path>
                <g id="Nuwe-top-bar-3" transform="translate(82.405856, 176.340139)" fill="#FFFFFF" sketch:type="MSShapeGroup">
                    <g id="Nuwe-logo">
                        <path d="M95.4683707,7.01603337 C95.0281945,5.66028055 94.3835298,4.46609758 93.5347156,3.43798641 C92.6852231,2.40837459 91.6310725,1.59568989 90.3727724,0.99859841 C89.1139636,0.403007573 87.6660961,0.104378461 86.0281525,0.104378461 C84.2381142,0.104378461 82.6842721,0.439356622 81.3645915,1.11064685 C80.04525,1.78193709 78.9456575,2.67632377 78.066153,3.79464061 C77.1863094,4.91312418 76.5265539,6.21068518 76.0873951,7.68749034 C75.647219,9.16412877 75.4276396,10.7079629 75.4276396,12.3184926 C75.4276396,13.9888814 75.6392497,15.5472218 76.0645046,16.9935138 C76.4890813,18.439639 77.1335765,19.6935145 77.9981597,20.7508049 C78.8625734,21.8109299 79.9384276,22.6454574 81.2280962,23.2570552 C82.5170866,23.8671523 84.026165,24.1731179 85.7551619,24.1731179 C88.575443,24.1731179 90.8426214,23.4579754 92.556358,22.0265231 C94.2697554,20.5949042 95.3842692,18.5370145 95.9002384,15.8516868 L94.1719197,15.8516868 C93.6542549,17.9996154 92.7115048,19.6773408 91.3429911,20.8848629 C89.9746469,22.0935521 88.1193283,22.6978134 85.7777133,22.6978134 C84.3479887,22.6978134 83.0932493,22.4285303 82.0146821,21.8926319 C80.9344194,21.3550662 80.0372807,20.6240835 79.3232662,19.6993503 C78.6078952,18.7761178 78.0685268,17.7026537 77.7038046,16.4792915 C77.3385737,15.2559292 77.1566365,13.9730412 77.1566365,12.6316279 L77.1566365,12.3623448 L96.0823451,12.3623448 C96.0823451,12.2442938 96.0896362,12.0870592 96.1052357,11.8934755 C96.1198178,11.699725 96.1281262,11.5279841 96.1281262,11.3779192 C96.1281262,9.82808249 95.9075294,8.37328685 95.4683707,7.01603337 L95.4683707,7.01603337 Z M77.2017393,10.8868736 C77.2927927,9.69419127 77.5369582,8.5305215 77.9320315,7.396031 C78.3271049,6.26304115 78.8897029,5.27111229 79.6193169,4.42224529 C80.3489309,3.57171089 81.2457304,2.88591439 82.3110719,2.36302165 C83.375057,1.84162956 84.6070754,1.58101688 86.0062794,1.58101688 C87.3134126,1.58101688 88.4764203,1.83445979 89.4954722,2.34134561 C90.5141849,2.84956534 91.3808028,3.52669143 92.0958347,4.37722582 C92.8105275,5.22625957 93.3497263,6.21085192 93.7152963,7.32916876 C94.0798489,8.44765233 94.2924764,9.63316489 94.3538569,10.8870403 L77.2017393,10.8870403 L77.2017393,10.8868736 Z M17.7789786,5.63627017 C17.6268838,4.95030693 17.3769533,4.27168019 17.0285088,3.60038996 C16.679386,2.92909973 16.2017373,2.32467174 15.5952234,1.78877337 C14.9880313,1.25137436 14.2075495,0.820354679 13.2524215,0.491045636 C12.3052629,0.166405278 10.3978895,0.00283455885 9.04870554,0 C7.69935204,0.00300129761 5.79197865,0.166405278 4.84498954,0.491045636 C3.88986159,0.820354679 3.1093798,1.25137436 2.50218768,1.78877337 C1.8956738,2.32467174 1.41802504,2.92909973 1.06907185,3.60038996 C0.720627338,4.27184693 0.470696821,4.95030693 0.318602063,5.63627017 C0.167015983,6.32223341 0.0761321588,6.98635388 0.0452723528,7.62696418 C0.015429903,8.26790795 0,8.82714974 0,9.30468954 L0,23.5316739 L1.72865781,23.5316739 L1.72865781,8.99172089 C1.72865781,8.42530934 1.77426929,7.70866617 1.86532267,6.8436255 C1.95603694,5.97858483 2.22190603,5.15139387 2.66123437,4.36055195 C3.1014105,3.57121068 3.7245412,2.8523999 4.71239411,2.46156425 C5.72568093,2.06072429 7.51249761,1.74925629 9.04870554,1.73908522 C10.5849135,1.74908955 12.3717301,2.06072429 13.3848474,2.46156425 C14.3727003,2.8523999 14.995831,3.57121068 15.4360071,4.36055195 C15.875505,5.15139387 16.1413741,5.97858483 16.2319188,6.8436255 C16.3231418,7.70866617 16.3685837,8.4251426 16.3685837,8.99172089 L16.3685837,23.5318406 L18.0972415,23.5318406 L18.0972415,9.30468954 C18.0972415,8.82714974 18.0816421,8.26790795 18.0521387,7.62696418 C18.0214485,6.98635388 17.9303951,6.32223341 17.7789786,5.63627017 L17.7789786,5.63627017 Z M37.6682931,15.2856087 C37.6682931,15.8520203 37.6226816,16.5684967 37.5316283,17.4337041 C37.440914,18.2987448 37.1750449,19.125769 36.735547,19.9167777 C36.2953709,20.7061189 35.6722402,21.4250965 34.6843872,21.8157654 C33.6711004,22.2166053 31.8842838,22.5280733 30.3480758,22.5380776 C28.8118679,22.5280733 27.0250512,22.2166053 26.0117644,21.8157654 C25.0239115,21.4250965 24.4009504,20.7062857 23.9606047,19.9167777 C23.5211068,19.1259357 23.2554072,18.2987448 23.164693,17.4337041 C23.0736396,16.5686634 23.0280281,15.852187 23.0280281,15.2856087 L23.0280281,0.745655717 L21.2993703,0.745655717 L21.2993703,14.9726401 C21.2993703,15.4501799 21.3149697,16.0094217 21.3446426,16.6503654 C21.3753329,17.2911425 21.4663863,17.9550962 21.6179724,18.6412262 C21.7700671,19.3270227 22.0199976,20.0058162 22.3684421,20.6769397 C22.7175649,21.3483966 23.1950441,21.9526579 23.801558,22.488723 C24.4087501,23.026122 25.1892319,23.4571417 26.1443598,23.7861172 C27.0915185,24.1109243 28.9988919,24.2744951 30.3480758,24.2773296 C31.6974293,24.2743283 33.6048027,24.1109243 34.5517918,23.7861172 C35.5070893,23.4569749 36.2875711,23.0259552 36.8945937,22.488723 C37.5011076,21.9526579 37.9787563,21.3483966 38.3278791,20.6769397 C38.6763236,20.0058162 38.9262541,19.3270227 39.0783489,18.6412262 C39.2299349,17.9550962 39.3208188,17.2909757 39.3516786,16.6503654 C39.3813515,16.0094217 39.3969509,15.4503466 39.3969509,14.9726401 L39.3969509,0.745655717 L37.6682931,0.745655717 L37.6682931,15.2856087 L37.6682931,15.2856087 Z M66.0886484,21.7729135 L65.997595,21.7729135 L59.5826552,0.745655717 L57.2624048,0.745655717 L50.893246,21.7729135 L50.8021926,21.7729135 L44.2053156,0.745655717 L42.339993,0.745655717 L49.7560113,23.7412645 L51.9394274,23.7412645 L58.4001482,2.89291742 L58.4908624,2.89291742 L64.9059718,23.7410978 L67.0439459,23.7410978 L74.5506785,0.745655717 L72.6397444,0.745655717 L66.0886484,21.7729135 L66.0886484,21.7729135 Z" id="Shape"></path>
                    </g>
                </g>
            </g>
        </g>
    </g>
</svg>