<?xml version="1.0" encoding="UTF-8" standalone="no"?>
<svg width="14px" height="14px" viewBox="0 0 14 14" version="1.1" xmlns="http://www.w3.org/2000/svg" xmlns:xlink="http://www.w3.org/1999/xlink" xmlns:sketch="http://www.bohemiancoding.com/sketch/ns">
    <!-- Generator: Sketch 3.2.2 (9983) - http://www.bohemiancoding.com/sketch -->
    <title>Fill 53</title>
    <desc>Created with Sketch.</desc>
    <defs></defs>
    <g id="Page-1" stroke="none" stroke-width="1" fill="none" fill-rule="evenodd" sketch:type="MSPage">
        <g id="Desktop-HD-General" sketch:type="MSArtboardGroup" transform="translate(-766.000000, -759.000000)" fill="#FFFFFF">
            <g id="App-plan" sketch:type="MSLayerGroup" transform="translate(362.000000, 695.000000)">
                <path d="M416,70.5454545 C416,70.7968182 415.796818,71 415.545455,71 C415.294091,71 415.090909,70.7968182 415.090909,70.5454545 L415.105,67.5572727 L412.02,70.6422727 L411.377273,69.9995455 L414.467727,66.9090909 L411.454545,66.9090909 C411.203182,66.9090909 411,66.7059091 411,66.4545455 C411,66.2031818 411.203182,66 411.454545,66 L415.532727,66 C415.659545,66 415.774091,66.0522727 415.856818,66.1368182 C415.944545,66.2113636 416,66.32 416,66.4545455 L416,70.5454545 L416,70.5454545 Z M410.545455,76 L406.467273,76 C406.340455,76 406.225909,75.9477273 406.143182,75.8631818 C406.055455,75.7886364 406,75.6804545 406,75.5454545 L406,71.4545455 C406,71.2031818 406.203182,71 406.454545,71 C406.705909,71 406.909091,71.2031818 406.909091,71.4545455 L406.895,74.4431818 L409.98,71.3577273 L410.623182,72.0004545 L407.532273,75.0909091 L410.545455,75.0909091 C410.796818,75.0909091 411,75.2940909 411,75.5454545 C411,75.7968182 410.796818,76 410.545455,76 L410.545455,76 Z M416.25,64 L405.75,64 C404.783563,64 404,64.7835625 404,65.75 L404,76.25 C404,77.2164375 404.783563,78 405.75,78 L416.25,78 C417.216438,78 418,77.2164375 418,76.25 L418,65.75 C418,64.7835625 417.216438,64 416.25,64 L416.25,64 Z" id="Fill-53" sketch:type="MSShapeGroup"></path>
            </g>
        </g>
    </g>
</svg>