<?xml version="1.0" encoding="UTF-8" standalone="no"?>
<svg width="46px" height="40px" viewBox="0 0 46 40" version="1.1" xmlns="http://www.w3.org/2000/svg" xmlns:xlink="http://www.w3.org/1999/xlink" xmlns:sketch="http://www.bohemiancoding.com/sketch/ns">
    <!-- Generator: Sketch 3.2.2 (9983) - http://www.bohemiancoding.com/sketch -->
    <title>wifi5</title>
    <desc>Created with Sketch.</desc>
    <defs>
        <path id="path-1" d="M0,0 L46,0 L46,40 L0,40 L0,0 Z"></path>
    </defs>
    <g id="Welcome" stroke="none" stroke-width="1" fill="none" fill-rule="evenodd" sketch:type="MSPage">
        <g id="Desktop-HD-Step3" sketch:type="MSArtboardGroup" transform="translate(-350.000000, -461.000000)">
            <g id="wifi5" sketch:type="MSLayerGroup" transform="translate(350.000000, 461.000000)">
                <path d="M27,22.5 C27,24.985853 24.984731,27 22.4998825,27 C20.0140944,27 18,24.985853 18,22.5 C18,20.0150867 20.0140944,18 22.4998825,18 C24.984731,18 27,20.0150867 27,22.5 L27,22.5 Z" id="Fill-1" fill="#45ACF4" sketch:type="MSShapeGroup"></path>
                <g id="Group-5">
                    <mask id="mask-2" sketch:name="Clip 3" fill="white">
                        <use xlink:href="#path-1"></use>
                    </mask>
                    <g id="Clip-3"></g>
                    <path d="M32.8996442,13.1351162 C30.2549965,10.4685745 26.7395108,9 22.999899,9 C19.2602871,9 15.7450035,10.4685745 13.1011642,13.1351162 C10.4565166,15.8008428 9,19.3460432 9,23.1157987 C9,26.8863694 10.4565166,30.4309585 13.1011642,33.0975001 C14.2955604,34.3001541 16.2328668,34.3009691 17.427263,33.0966851 C18.6216591,31.8915859 18.6216591,29.9390563 17.4264546,28.7339571 C15.9384108,27.2342057 15.1180971,25.2386805 15.1180971,23.1157987 C15.1180971,20.993732 15.9384108,18.9982068 17.427263,17.4962139 C18.9153067,15.9958512 20.8944474,15.1687465 22.999899,15.1687465 C25.1053505,15.1687465 27.0844912,15.9958512 28.572737,17.4962139 C30.0615892,18.9982068 30.8817008,20.993732 30.8817008,23.1157987 C30.8817008,25.2386805 30.0615892,27.2342057 28.572737,28.7339571 C27.3775325,29.9390563 27.3775325,31.8915859 28.5719287,33.0966851 C29.1695309,33.6992346 29.9534671,34 30.7357864,34 C31.5181058,34 32.3012335,33.6992346 32.8988358,33.0975001 C35.5434834,30.4309585 37,26.8863694 37,23.1157987 C37,19.3460432 35.5434834,15.8008428 32.8996442,13.1351162 L32.8996442,13.1351162 Z" id="Fill-2" fill="#45ACF4" sketch:type="MSShapeGroup" mask="url(#mask-2)"></path>
                    <path d="M39.2711642,6.69935326 C30.2991787,-2.23311775 15.7007702,-2.23311775 6.72898909,6.69935326 C-2.24299636,15.6308068 -2.24299636,30.165735 6.72898909,39.0973921 C7.93615497,40.3008693 9.89713523,40.3008693 11.1043011,39.0973921 C12.3122846,37.8947288 12.3122846,35.9440131 11.1043011,34.7411463 C7.92654833,31.5775925 6.17650529,27.3717305 6.17650529,22.8986779 C6.17650529,18.4250148 7.92654833,14.2191528 11.1043011,11.0553955 C17.6633856,4.52438458 28.3367677,4.52438458 34.8958522,11.0553955 C38.0734006,14.2191528 39.823648,18.4250148 39.823648,22.8986779 C39.823648,27.3717305 38.0734006,31.5775925 34.8958522,34.7411463 C33.6876643,35.9440131 33.6876643,37.8947288 34.8958522,39.0973921 C35.4994351,39.6991307 36.2922893,39.9994913 37.0835082,39.9994913 C37.8755447,39.9994913 38.6675813,39.6991307 39.2711642,39.0973921 C48.2429453,30.165735 48.2429453,15.6308068 39.2711642,6.69935326 L39.2711642,6.69935326 Z" id="Fill-4" fill="#45ACF4" sketch:type="MSShapeGroup" mask="url(#mask-2)"></path>
                </g>
            </g>
        </g>
    </g>
</svg>