<?xml version="1.0" encoding="UTF-8" standalone="no"?>
<svg width="26px" height="23px" viewBox="0 0 26 23" version="1.1" xmlns="http://www.w3.org/2000/svg" xmlns:xlink="http://www.w3.org/1999/xlink" xmlns:sketch="http://www.bohemiancoding.com/sketch/ns">
    <!-- Generator: Sketch 3.2.2 (9983) - http://www.bohemiancoding.com/sketch -->
    <title>Shape</title>
    <desc>Created with Sketch.</desc>
    <defs></defs>
    <g id="Page-1" stroke="none" stroke-width="1" fill="none" fill-rule="evenodd" sketch:type="MSPage">
        <g id="Desktop-HD" sketch:type="MSArtboardGroup" transform="translate(-118.000000, -5212.000000)" fill="#FFFFFF">
            <g id="Footer" sketch:type="MSLayerGroup" transform="translate(0.000000, 5016.000000)">
                <g id="Social-icons" transform="translate(68.000000, 192.000000)" sketch:type="MSShapeGroup">
                    <path d="M72.55,7.98 C73.61,7.29 74.43,6.2 74.81,4.91 C73.82,5.54 72.72,6 71.55,6.25 C70.62,5.17 69.28,4.5 67.81,4.5 C64.98,4.5 62.68,6.99 62.68,10.05 C62.68,10.49 62.72,10.91 62.81,11.32 C58.55,11.09 54.77,8.88 52.24,5.52 C51.8,6.34 51.55,7.29 51.55,8.31 C51.55,10.24 52.45,11.94 53.83,12.93 C52.99,12.9 52.2,12.65 51.5,12.24 L51.5,12.31 C51.5,15 53.27,17.24 55.62,17.75 C55.19,17.88 54.73,17.95 54.27,17.95 C53.94,17.95 53.62,17.91 53.3,17.85 C53.95,20.05 55.85,21.66 58.09,21.71 C56.34,23.19 54.13,24.08 51.72,24.08 C51.31,24.08 50.9,24.06 50.5,24 C52.77,25.58 55.47,26.5 58.36,26.5 C67.8,26.5 72.96,18.04 72.96,10.7 L72.94,9.98 C73.94,9.2 74.81,8.22 75.5,7.1 C74.58,7.55 73.59,7.84 72.55,7.98 Z" id="Shape"></path>
                </g>
            </g>
        </g>
    </g>
</svg>