<?xml version="1.0" encoding="UTF-8" standalone="no"?>
<svg width="30px" height="30px" viewBox="0 0 30 30" version="1.1" xmlns="http://www.w3.org/2000/svg" xmlns:xlink="http://www.w3.org/1999/xlink" xmlns:sketch="http://www.bohemiancoding.com/sketch/ns">
    <!-- Generator: Sketch 3.2.2 (9983) - http://www.bohemiancoding.com/sketch -->
    <title>Fill 23</title>
    <desc>Created with Sketch.</desc>
    <defs></defs>
    <g id="Welcome" stroke="none" stroke-width="1" fill="none" fill-rule="evenodd" sketch:type="MSPage">
        <g id="Desktop-HD-Profile" sketch:type="MSArtboardGroup" transform="translate(-1381.000000, -125.000000)" fill="#FFFFFF">
            <path d="M1401.30344,143.975 C1401.67,144.340625 1401.67,144.940625 1401.30344,145.30625 C1400.93781,145.671875 1400.34344,145.671875 1399.97688,145.30625 L1396.00563,141.33125 L1392.00625,145.334375 C1391.63687,145.7 1391.03875,145.7 1390.66937,145.334375 C1390.30094,144.959375 1390.30094,144.359375 1390.66937,143.99375 L1394.66875,139.990625 L1390.6975,136.025 C1390.33094,135.659375 1390.33094,135.059375 1390.6975,134.69375 C1391.06219,134.328125 1391.65656,134.328125 1392.02312,134.69375 L1395.99437,138.66875 L1400.02375,134.6375 C1400.39313,134.271875 1400.99031,134.271875 1401.35969,134.6375 C1401.72813,135.0125 1401.72813,135.603125 1401.35969,135.978125 L1397.33125,140.009375 L1401.30344,143.975 L1401.30344,143.975 Z M1396,125 C1387.71531,125 1381,131.7125 1381,140 C1381,148.2875 1387.71531,155 1396,155 C1404.28469,155 1411,148.2875 1411,140 C1411,131.7125 1404.28469,125 1396,125 L1396,125 Z" id="Fill-23" sketch:type="MSShapeGroup"></path>
        </g>
    </g>
</svg>